<svg width="17" height="16" viewBox="0 0 17 16" fill="none" xmlns="http://www.w3.org/2000/svg">
<g clip-path="url(#clip0_503_6728)">
<path d="M14.831 0.60376H1.66977C1.21896 0.60376 0.853516 0.969207 0.853516 1.42001V14.5813C0.853516 15.0321 1.21896 15.3975 1.66977 15.3975H14.831C15.2818 15.3975 15.6473 15.0321 15.6473 14.5813V1.42001C15.6473 0.969207 15.2818 0.60376 14.831 0.60376Z" fill="#C1BFBF"/>
<path d="M11.0601 15.3962V9.66749H12.9826L13.2701 7.43499H11.0601V6.00999C11.0601 5.36374 11.2401 4.92249 12.1664 4.92249H13.3489V2.92249C12.7763 2.86292 12.2008 2.83454 11.6251 2.83749C9.92264 2.83749 8.75014 3.87499 8.75014 5.78874V7.43499H6.82764V9.66749H8.75014V15.3962H11.0601Z" fill="#1E1E1E"/>
</g>
<defs>
<clipPath id="clip0_503_6728">
<rect width="16" height="16" fill="white" transform="translate(0.25)"/>
</clipPath>
</defs>
</svg>
