<svg width="17" height="16" viewBox="0 0 17 16" fill="none" xmlns="http://www.w3.org/2000/svg">
<g clip-path="url(#clip0_503_6723)">
<path d="M12.5 0H4C1.92893 0 0.25 1.67893 0.25 3.75V12.25C0.25 14.3211 1.92893 16 4 16H12.5C14.5711 16 16.25 14.3211 16.25 12.25V3.75C16.25 1.67893 14.5711 0 12.5 0Z" fill="#C1BFBF"/>
<path d="M12.5 0H4C1.92893 0 0.25 1.67893 0.25 3.75V12.25C0.25 14.3211 1.92893 16 4 16H12.5C14.5711 16 16.25 14.3211 16.25 12.25V3.75C16.25 1.67893 14.5711 0 12.5 0Z" fill="#C1BFBF"/>
<path d="M8.25056 1.75C6.55319 1.75 6.34013 1.75744 5.6735 1.78775C5.00813 1.81825 4.55394 1.92356 4.15656 2.07812C3.74544 2.23775 3.39675 2.45131 3.04938 2.79881C2.70169 3.14625 2.48813 3.49494 2.328 3.90587C2.173 4.30338 2.06756 4.75775 2.03762 5.42281C2.00781 6.0895 2 6.30263 2 8.00006C2 9.6975 2.0075 9.90987 2.03775 10.5765C2.06838 11.2419 2.17369 11.6961 2.32812 12.0934C2.48787 12.5046 2.70144 12.8533 3.04894 13.2006C3.39625 13.5483 3.74494 13.7624 4.15575 13.922C4.55344 14.0766 5.00769 14.1819 5.67294 14.2124C6.33962 14.2427 6.5525 14.2501 8.24981 14.2501C9.94738 14.2501 10.1597 14.2427 10.8264 14.2124C11.4917 14.1819 11.9464 14.0766 12.3441 13.922C12.7551 13.7624 13.1032 13.5483 13.4505 13.2006C13.7982 12.8533 14.0117 12.5046 14.1719 12.0936C14.3255 11.6961 14.431 11.2417 14.4622 10.5766C14.4922 9.91 14.5 9.6975 14.5 8.00006C14.5 6.30263 14.4922 6.08962 14.4622 5.42294C14.431 4.75756 14.3255 4.30344 14.1719 3.90606C14.0117 3.49494 13.7982 3.14625 13.4505 2.79881C13.1029 2.45119 12.7552 2.23762 12.3438 2.07819C11.9453 1.92356 11.4909 1.81819 10.8255 1.78775C10.1588 1.75744 9.94656 1.75 8.24862 1.75H8.25056ZM7.68988 2.87631C7.85631 2.87606 8.042 2.87631 8.25056 2.87631C9.91938 2.87631 10.1171 2.88231 10.7761 2.91225C11.3855 2.94012 11.7163 3.04194 11.9366 3.1275C12.2283 3.24075 12.4362 3.37619 12.6548 3.595C12.8736 3.81375 13.0089 4.02206 13.1225 4.31375C13.2081 4.53375 13.31 4.8645 13.3378 5.47388C13.3677 6.13275 13.3742 6.33062 13.3742 7.99862C13.3742 9.66663 13.3677 9.86456 13.3378 10.5234C13.3099 11.1327 13.2081 11.4635 13.1225 11.6836C13.0093 11.9753 12.8736 12.1829 12.6548 12.4016C12.4361 12.6203 12.2284 12.7557 11.9366 12.869C11.7165 12.9549 11.3855 13.0565 10.7761 13.0844C10.1173 13.1143 9.91938 13.1208 8.25056 13.1208C6.58169 13.1208 6.38387 13.1143 5.72506 13.0844C5.11569 13.0563 4.78494 12.9544 4.56444 12.8689C4.27281 12.7556 4.06444 12.6202 3.84569 12.4014C3.62694 12.1827 3.49156 11.9749 3.378 11.6831C3.29244 11.463 3.1905 11.1322 3.16275 10.5229C3.13281 9.864 3.12681 9.66613 3.12681 7.99706C3.12681 6.328 3.13281 6.13119 3.16275 5.47231C3.19062 4.86294 3.29244 4.53219 3.378 4.31187C3.49131 4.02019 3.62694 3.81188 3.84575 3.59313C4.06456 3.37438 4.27281 3.23894 4.5645 3.12544C4.78481 3.0395 5.11569 2.93794 5.72506 2.90994C6.30162 2.88387 6.52506 2.87606 7.68988 2.87475V2.87631ZM11.5868 3.91406C11.1728 3.91406 10.8368 4.24969 10.8368 4.66381C10.8368 5.07788 11.1728 5.41381 11.5868 5.41381C12.0009 5.41381 12.3368 5.07788 12.3368 4.66381C12.3368 4.24975 12.0009 3.91381 11.5868 3.91381V3.91406ZM8.25056 4.79038C6.47806 4.79038 5.04094 6.2275 5.04094 8.00006C5.04094 9.77262 6.47806 11.2091 8.25056 11.2091C10.0231 11.2091 11.4598 9.77262 11.4598 8.00006C11.4598 6.22756 10.023 4.79038 8.25044 4.79038H8.25056ZM8.25056 5.91669C9.40112 5.91669 10.3339 6.84938 10.3339 8.00006C10.3339 9.15063 9.40112 10.0834 8.25056 10.0834C7.1 10.0834 6.16725 9.15063 6.16725 8.00006C6.16725 6.84938 7.09994 5.91669 8.25056 5.91669Z" fill="#1E1E1E"/>
</g>
<defs>
<clipPath id="clip0_503_6723">
<rect width="16" height="16" fill="white" transform="translate(0.25)"/>
</clipPath>
</defs>
</svg>
