<svg width="17" height="16" viewBox="0 0 17 16" fill="none" xmlns="http://www.w3.org/2000/svg">
<g clip-path="url(#clip0_503_6720)">
<path d="M14.75 0.375058H1.75C1.45504 0.372056 1.17093 0.486188 0.960024 0.692411C0.749114 0.898635 0.628626 1.1801 0.625 1.47506V14.5276C0.629282 14.8221 0.750058 15.1029 0.960896 15.3086C1.17173 15.5143 1.45547 15.6281 1.75 15.6251H14.75C15.045 15.6274 15.3289 15.5129 15.5397 15.3065C15.7505 15.1002 15.871 14.8188 15.875 14.5238V1.47131C15.8697 1.17722 15.7486 0.897091 15.538 0.691815C15.3273 0.486538 15.0441 0.372705 14.75 0.375058Z" fill="#C1BFBF"/>
<path d="M2.88264 6.09131H5.14639V13.3751H2.88264V6.09131ZM4.01514 2.46631C4.27478 2.46631 4.52859 2.54332 4.74445 2.68759C4.96032 2.83187 5.12855 3.03692 5.22785 3.27683C5.32715 3.51673 5.35307 3.78069 5.30233 4.03532C5.25158 4.28996 5.12645 4.52382 4.94277 4.70733C4.75909 4.89083 4.52511 5.01574 4.27043 5.06624C4.01574 5.11674 3.7518 5.09057 3.512 4.99104C3.27219 4.89151 3.06729 4.72309 2.92323 4.50708C2.77916 4.29108 2.70239 4.0372 2.70264 3.77756C2.70297 3.42968 2.8414 3.09616 3.0875 2.85029C3.33361 2.60442 3.66726 2.46631 4.01514 2.46631ZM6.56639 6.09131H8.73639V7.09131H8.76639C9.06889 6.51881 9.80639 5.91506 10.9076 5.91506C13.2001 5.91006 13.6251 7.41881 13.6251 9.37506V13.3751H11.3614V9.83131C11.3614 8.98756 11.3464 7.90131 10.1851 7.90131C9.02389 7.90131 8.82639 8.82131 8.82639 9.77631V13.3751H6.56639V6.09131Z" fill="#1E1E1E"/>
</g>
<defs>
<clipPath id="clip0_503_6720">
<rect width="16" height="16" fill="white" transform="translate(0.25)"/>
</clipPath>
</defs>
</svg>
